<svg width="1200" height="253" viewBox="0 0 1200 253" fill="none" xmlns="http://www.w3.org/2000/svg">
<path fill-rule="evenodd" clip-rule="evenodd" d="M18.3962 137.506V230.713L79.0666 230.713V165.493H144.404V230.713L205.074 230.713V138.434L111.272 44.4349L18.3962 137.506Z" fill="#9A9A9A"/>
<path fill-rule="evenodd" clip-rule="evenodd" d="M56.6652 36.9436V26.7324H21.1964V73.6334L56.6652 36.9436ZM50.3239 74.2496H56.6652V67.69L50.3239 74.2496Z" fill="#9A9A9A"/>
<path fill-rule="evenodd" clip-rule="evenodd" d="M104.642 3.04956C108.573 -1.01653 115.091 -1.01652 119.021 3.04958L220.853 108.387C224.6 112.263 224.6 118.411 220.853 122.287L212.71 130.71L111.832 26.3588L10.9528 130.71L2.81032 122.287C-0.936774 118.411 -0.936771 112.263 2.81032 108.387L104.642 3.04956Z" fill="#9A9A9A"/>
<path d="M311.75 111C324.45 111 333.85 113.1 339.95 117.3C346.15 121.4 349.25 128.7 349.25 139.2C349.25 149.7 346.2 158.05 340.1 164.25C334 170.35 324.15 173.4 310.55 173.4H297.95L297.5 205.95L309.2 207C309.2 209.8 308.35 212.8 306.65 216H272.9L272.45 210.9C276.65 209.3 280.95 208.1 285.35 207.3C284.75 168.3 284.25 139.3 283.85 120.3C281.15 119.8 276.75 118.6 270.65 116.7L271.4 111H311.75ZM309.05 163.65C317.65 163.55 324.2 161.4 328.7 157.2C333.2 152.9 335.45 147.25 335.45 140.25C335.45 133.25 333.25 128.4 328.85 125.7C324.45 122.9 317.4 121.5 307.7 121.5C305.9 121.5 302.85 121.55 298.55 121.65C298.55 121.75 298.4 135.8 298.1 163.8L309.05 163.65ZM403.729 150.6C403.229 150.1 402.129 149.85 400.429 149.85C398.729 149.85 396.179 150.45 392.779 151.65C389.479 152.85 386.479 154.25 383.779 155.85C383.179 178.05 382.779 194.7 382.579 205.8L395.179 207C395.179 209.8 394.329 212.8 392.629 216H358.129L357.679 210.75C362.279 209.15 366.779 207.95 371.179 207.15C370.579 181.75 370.079 162.95 369.679 150.75C364.179 150.45 359.779 149.85 356.479 148.95L357.079 141.15C362.379 139.65 370.229 138.9 380.629 138.9C382.229 141.4 383.229 144.6 383.629 148.5C395.129 141.5 401.979 138 404.179 138C406.379 138 408.929 138.45 411.829 139.35C414.729 140.15 416.879 141.05 418.279 142.05C418.279 152.05 417.329 160.2 415.429 166.5C414.029 166.9 412.379 167.1 410.479 167.1C408.679 167.1 407.429 167.05 406.729 166.95L403.729 150.6ZM459.712 208.8C468.112 208.8 473.762 206.2 476.662 201C479.662 195.7 481.162 188.2 481.162 178.5C481.162 163.1 477.762 153.45 470.962 149.55C468.162 147.95 464.212 147.15 459.112 147.15C454.112 147.15 449.362 148.2 444.862 150.3C440.862 158 438.862 166.95 438.862 177.15C438.862 186.95 440.162 194.5 442.762 199.8C445.762 205.8 451.412 208.8 459.712 208.8ZM425.062 178.5C425.062 165.8 427.962 155.9 433.762 148.8C439.562 141.6 448.512 138 460.612 138C472.712 138 481.462 141.3 486.862 147.9C492.262 154.4 494.962 164.05 494.962 176.85C494.962 189.65 492.062 199.7 486.262 207C480.562 214.3 471.862 217.95 460.162 217.95C448.462 217.95 439.662 214.55 433.762 207.75C427.962 200.95 425.062 191.2 425.062 178.5ZM529.325 208.35L528.575 240.45L541.625 241.5C541.625 244.3 540.775 247.3 539.075 250.5H504.275L503.825 245.25C508.425 243.75 512.925 242.6 517.325 241.8C516.725 201 516.225 170.65 515.825 150.75C511.325 150.65 506.925 150.05 502.625 148.95L503.225 141.15C509.025 139.65 517.125 138.9 527.525 138.9C528.425 140.5 529.275 143.45 530.075 147.75C542.875 141.25 550.975 138 554.375 138C563.675 138 570.575 141.65 575.075 148.95C579.575 156.15 581.825 165.55 581.825 177.15C581.825 188.65 579.275 198.3 574.175 206.1C569.175 213.9 561.875 217.8 552.275 217.8C548.675 217.8 544.725 216.9 540.425 215.1C536.225 213.3 532.525 211.05 529.325 208.35ZM551.675 149.25C545.475 149.25 538.275 151.45 530.075 155.85C529.875 174.45 529.675 188.4 529.475 197.7C531.975 200.2 535.275 202.5 539.375 204.6C543.575 206.6 547.225 207.6 550.325 207.6C562.125 207.6 568.025 197.9 568.025 178.5C568.025 171.1 567.175 165.3 565.475 161.1C563.775 156.8 561.825 153.75 559.625 151.95C557.425 150.15 554.775 149.25 551.675 149.25ZM630.74 207.6C635.14 207.6 642.04 205.5 651.44 201.3C653.34 203.9 654.34 206.2 654.44 208.2C649.34 211.2 644.34 213.55 639.44 215.25C634.54 216.95 631.04 217.8 628.94 217.8C617.34 217.8 608.49 214.35 602.39 207.45C596.29 200.45 593.24 190.7 593.24 178.2C593.24 165.7 596.19 155.9 602.09 148.8C608.09 141.6 617.04 138 628.94 138C638.14 138 645.14 141.3 649.94 147.9C654.84 154.5 657.29 163.35 657.29 174.45C656.49 175.85 655.84 176.8 655.34 177.3L607.04 176.55C607.14 186.65 608.89 194.35 612.29 199.65C615.79 204.95 621.94 207.6 630.74 207.6ZM643.64 168C643.64 161.4 642.44 156.3 640.04 152.7C637.64 149 633.64 147.15 628.04 147.15C622.44 147.15 617.44 148.2 613.04 150.3C610.04 156.3 608.14 162.45 607.34 168.75C615.24 168.65 627.34 168.4 643.64 168ZM715.448 150.6C714.948 150.1 713.848 149.85 712.148 149.85C710.448 149.85 707.898 150.45 704.498 151.65C701.198 152.85 698.198 154.25 695.498 155.85C694.898 178.05 694.498 194.7 694.298 205.8L706.898 207C706.898 209.8 706.048 212.8 704.348 216H669.848L669.398 210.75C673.998 209.15 678.498 207.95 682.898 207.15C682.298 181.75 681.798 162.95 681.398 150.75C675.898 150.45 671.498 149.85 668.198 148.95L668.798 141.15C674.098 139.65 681.948 138.9 692.348 138.9C693.948 141.4 694.948 144.6 695.348 148.5C706.848 141.5 713.698 138 715.898 138C718.098 138 720.648 138.45 723.548 139.35C726.448 140.15 728.598 141.05 729.998 142.05C729.998 152.05 729.048 160.2 727.148 166.5C725.748 166.9 724.098 167.1 722.198 167.1C720.398 167.1 719.148 167.05 718.448 166.95L715.448 150.6ZM747.881 206.7L746.681 150.15H735.131L734.681 144.9C735.681 144.2 738.581 142.9 743.381 141L755.681 121.8C757.681 122 759.231 122.5 760.331 123.3L760.181 139.8C767.681 139.8 773.831 140.3 778.631 141.3C778.631 144 777.781 146.95 776.081 150.15H759.881C759.681 162.15 759.481 180.35 759.281 204.75C764.881 205.05 770.481 206.05 776.081 207.75L775.931 213C774.531 213.9 770.931 214.95 765.131 216.15C759.431 217.35 754.731 217.95 751.031 217.95C750.531 217.15 749.881 215.45 749.081 212.85C748.281 210.15 747.881 208.1 747.881 206.7ZM804.529 243.9C808.329 243.9 812.029 240.25 815.629 232.95C819.329 225.65 821.429 220 821.929 216H818.329L794.629 150L782.029 148.8C782.029 146 782.879 143 784.579 139.8H819.079L819.529 145.05C816.329 146.45 812.779 147.55 808.879 148.35L821.929 189.3L825.379 202.5H826.879L844.879 148.35L832.279 145.05L832.729 139.8H866.479C868.179 143 869.029 146 869.029 148.8C864.929 149.3 860.829 149.65 856.729 149.85C854.129 157.45 850.229 168.8 845.029 183.9C839.929 199 835.879 210.7 832.879 219C829.979 227.3 827.079 234.05 824.179 239.25C821.279 244.45 818.379 247.9 815.479 249.6C812.679 251.4 809.529 252.3 806.029 252.3C799.829 252.3 794.029 251.1 788.629 248.7L785.929 247.35C786.629 235.95 787.079 229.7 787.279 228.6C788.079 228.3 790.979 228.15 795.979 228.15L801.079 243.45C801.979 243.75 803.129 243.9 804.529 243.9Z" fill="#9A9A9A"/>
<path d="M945.182 149.85L915.932 216H905.282L877.832 150L865.232 148.8C865.232 146 866.082 143 867.782 139.8H904.082L904.532 145.05C901.332 146.45 897.782 147.55 893.882 148.35L907.382 189.3L910.832 202.5H912.632L916.382 189.15L930.332 148.35L917.732 145.05L918.182 139.8H954.932C956.632 143 957.482 146 957.482 148.8C953.382 149.3 949.282 149.65 945.182 149.85ZM987.609 125.55C985.009 126.15 982.459 126.45 979.959 126.45C977.559 126.45 975.159 126.3 972.759 126C972.159 123.2 971.859 120.4 971.859 117.6C971.859 114.7 971.959 112.55 972.159 111.15C974.359 110.65 976.659 110.4 979.059 110.4C981.559 110.4 984.209 110.5 987.009 110.7C987.609 113.3 987.909 115.85 987.909 118.35C987.909 120.75 987.809 123.15 987.609 125.55ZM960.309 141.3C968.809 139.8 975.409 139.05 980.109 139.05C984.809 139.05 987.809 139.15 989.109 139.35C989.109 141.75 988.809 144.4 988.209 147.3C987.609 150.2 987.259 151.6 987.159 151.5L985.809 205.8L998.409 207C998.409 209.8 997.559 212.8 995.859 216H961.359L960.909 210.75C965.509 209.15 970.009 207.95 974.409 207.15C973.809 182.15 973.309 163.4 972.909 150.9C967.109 150.9 962.709 150.3 959.709 149.1L960.309 141.3ZM1019.2 206.4C1022.7 207.9 1026.95 208.65 1031.95 208.65C1037.05 208.65 1041.05 207.7 1043.95 205.8C1046.85 203.9 1048.3 201.3 1048.3 198C1048.3 194.7 1046.95 191.95 1044.25 189.75C1041.55 187.55 1038.25 185.6 1034.35 183.9C1030.45 182.2 1026.55 180.4 1022.65 178.5C1018.75 176.6 1015.45 174.1 1012.75 171C1010.05 167.9 1008.7 164.3 1008.7 160.2C1008.7 153.3 1011 147.9 1015.6 144C1020.2 140 1026.55 138 1034.65 138C1042.85 138 1050.55 139.85 1057.75 143.55C1057.85 144.55 1057.9 147.25 1057.9 151.65C1057.9 155.95 1057.45 159.65 1056.55 162.75C1054.15 163.55 1051.3 163.95 1048 163.95L1043.05 148.65C1040.85 147.55 1037.85 147 1034.05 147C1030.35 147 1027.4 148 1025.2 150C1023 151.9 1021.9 154.35 1021.9 157.35C1021.9 160.25 1023.25 162.8 1025.95 165C1028.75 167.2 1032.1 169.2 1036 171C1039.9 172.7 1043.8 174.55 1047.7 176.55C1051.6 178.45 1054.9 181 1057.6 184.2C1060.4 187.3 1061.8 190.9 1061.8 195C1061.8 202.2 1059 207.85 1053.4 211.95C1047.9 215.95 1041.1 217.95 1033 217.95C1028.6 217.95 1023.9 217.25 1018.9 215.85C1013.9 214.35 1009.7 212.45 1006.3 210.15C1006.3 203.45 1006.9 197.5 1008.1 192.3C1010.4 191.9 1013.5 191.7 1017.4 191.7L1019.2 206.4ZM1085.67 206.7L1084.47 150.15H1072.92L1072.47 144.9C1073.47 144.2 1076.37 142.9 1081.17 141L1093.47 121.8C1095.47 122 1097.02 122.5 1098.12 123.3L1097.97 139.8C1105.47 139.8 1111.62 140.3 1116.42 141.3C1116.42 144 1115.57 146.95 1113.87 150.15H1097.67C1097.47 162.15 1097.27 180.35 1097.07 204.75C1102.67 205.05 1108.27 206.05 1113.87 207.75L1113.72 213C1112.32 213.9 1108.72 214.95 1102.92 216.15C1097.22 217.35 1092.52 217.95 1088.82 217.95C1088.32 217.15 1087.67 215.45 1086.87 212.85C1086.07 210.15 1085.67 208.1 1085.67 206.7ZM1187.02 166.95L1186.27 205.65C1190.57 205.95 1194.87 206.65 1199.17 207.75L1198.87 213C1197.27 213.8 1194.37 214.7 1190.17 215.7C1186.07 216.6 1182.02 217.05 1178.02 217.05C1176.22 213.45 1175.22 210 1175.02 206.7C1163.62 214.2 1155.62 217.95 1151.02 217.95C1143.92 217.95 1138.22 216.05 1133.92 212.25C1129.62 208.45 1127.47 203.15 1127.47 196.35C1127.47 180.65 1137.07 172.55 1156.27 172.05C1167.47 171.75 1173.12 171.6 1173.22 171.6L1173.07 166.5C1172.87 159.6 1171.57 154.65 1169.17 151.65C1166.77 148.55 1162.47 147 1156.27 147C1153.67 147 1150.87 147.6 1147.87 148.8L1144.27 163.8C1143.77 163.9 1142.92 163.95 1141.72 163.95L1135.57 163.5C1133.97 159.2 1133.12 153.25 1133.02 145.65C1134.92 144.65 1139.27 143.15 1146.07 141.15C1152.87 139.05 1157.22 138 1159.12 138C1169.32 138 1176.52 140.25 1180.72 144.75C1184.92 149.25 1187.02 156.65 1187.02 166.95ZM1154.32 207.75C1157.22 207.75 1163.92 204.5 1174.42 198L1173.67 179.25C1166.87 179.85 1161.17 180.4 1156.57 180.9C1151.97 181.4 1148.27 182.75 1145.47 184.95C1142.67 187.05 1141.27 190.4 1141.27 195C1141.27 203.5 1145.62 207.75 1154.32 207.75Z" fill="#426CD6"/>
</svg>
